<?xml version="1.0" standalone="no"?><svg xmlns="http://www.w3.org/2000/svg" viewBox="0 0 1440 320"><path fill="#869d7a" fill-opacity="100" d="M0,32L30,48C60,64,120,96,180,138.7C240,181,300,235,360,218.7C420,203,480,117,540,90.7C600,64,660,96,720,128C780,160,840,192,900,170.7C960,149,1020,75,1080,85.3C1140,96,1200,192,1260,218.7C1320,245,1380,203,1410,181.3L1440,160L1440,320L1410,320C1380,320,1320,320,1260,320C1200,320,1140,320,1080,320C1020,320,960,320,900,320C840,320,780,320,720,320C660,320,600,320,540,320C480,320,420,320,360,320C300,320,240,320,180,320C120,320,60,320,30,320L0,320Z"></path></svg>