<svg xmlns="http://www.w3.org/2000/svg" height="1200" width="1600" version="1.1" xmlns:xlink="http://www.w3.org/1999/xlink" xmlns:svgjs="http://svgjs.com/svgjs"><rect fill="#f3ebe9" width="1600" height="1200"></rect><g><path d="M646.08 991.07C659.04 991.07 669.56 980.55 669.56 967.59 669.56 954.62 659.04 944.1 646.08 944.1 633.11 944.1 622.59 954.62 622.59 967.59 622.59 980.55 633.11 991.07 646.08 991.07Z" stroke="#ffc930" stroke-width="4" stroke-linecap="round" stroke-linejoin="round" opacity="1" fill="none"></path></g><g><path d="M820 910.95C831.01 910.95 839.94 902.02 839.94 891.01 839.94 880 831.01 871.08 820 871.08 808.99 871.08 800.06 880 800.06 891.01 800.06 902.02 808.99 910.95 820 910.95Z" fill="#61ccff" opacity="1" stroke-width="4" stroke="none"></path></g><g><path d="M304 507.33C313.93 507.33 321.98 499.28 321.98 489.35 321.98 479.42 313.93 471.37 304 471.37 294.07 471.37 286.02 479.42 286.02 489.35 286.02 499.28 294.07 507.33 304 507.33Z" stroke="#61ccff" stroke-width="4" stroke-linecap="round" stroke-linejoin="round" opacity="1" fill="none"></path></g><g><path d="M1329.61 362.23C1339.67 362.23 1347.82 354.08 1347.82 344.02 1347.82 333.97 1339.67 325.81 1329.61 325.81 1319.55 325.81 1311.4 333.97 1311.4 344.02 1311.4 354.08 1319.55 362.23 1329.61 362.23Z" stroke="#61ccff" stroke-width="4" stroke-linecap="round" stroke-linejoin="round" opacity="1" fill="none"></path></g><g><path d="M646.08 263.1C659.05 263.1 669.56 252.58 669.56 239.61 669.56 226.64 659.05 216.13 646.08 216.13 633.1 216.13 622.59 226.64 622.59 239.61 622.59 252.58 633.1 263.1 646.08 263.1Z" fill="#ffc930" opacity="1" stroke-width="4" stroke="none"></path></g><g><path d="M1126.56 311.65H530.42C498.49 311.65 472.51 337.51 472.51 369.57V752.42C472.51 784.36 498.36 810.34 530.42 810.34H1126.69C1158.62 810.34 1184.6 784.49 1184.6 752.42V369.57C1184.48 337.51 1158.5 311.65 1126.56 311.65Z" fill="#efdcd7" opacity="1" stroke-width="4" stroke="none"></path><path d="M542.59 402.65C554.13 402.65 563.5 393.28 563.5 381.74 563.5 370.19 554.13 360.83 542.59 360.83 531.03 360.83 521.68 370.19 521.68 381.74 521.68 393.28 531.03 402.65 542.59 402.65Z" fill="#f3ebe9" opacity="1" stroke-width="4" stroke="none"></path><path d="M605.07 402.65C616.61 402.65 625.98 393.28 625.98 381.74 625.98 370.19 616.61 360.83 605.07 360.83 593.52 360.83 584.15 370.19 584.15 381.74 584.15 393.28 593.52 402.65 605.07 402.65Z" fill="#f3ebe9" opacity="1" stroke-width="4" stroke="none"></path><path d="M667.54 402.65C679.09 402.65 688.45 393.28 688.45 381.74 688.45 370.19 679.09 360.83 667.54 360.83 656 360.83 646.63 370.19 646.63 381.74 646.63 393.28 656 402.65 667.54 402.65Z" fill="#f3ebe9" opacity="1" stroke-width="4" stroke="none"></path></g><g><path d="M636.67 508.38H1017.63V657.83H909.21L867.1 632.92 781.63 636.54 748.03 657.83 731.82 675.71H653.57L636.67 657.83V508.38Z" fill="#61ccff" opacity="1" stroke-width="4" stroke="none"></path><path d="M748.03 657.83H586.86V707.65H748.03V657.83Z" fill="#ff9edd" opacity="1" stroke-width="4" stroke="none"></path><path d="M909.21 608.01H748.03V657.83H909.21V608.01Z" fill="#ffffff" opacity="1" stroke-width="4" stroke="none"></path><path d="M1070.38 558.2H909.21V608.01H1070.38V558.2Z" fill="#ff9edd" opacity="1" stroke-width="4" stroke="none"></path><path d="M748.03 558.49H586.86V570.89H748.03V558.49Z" fill="#ff9edd" opacity="1" stroke-width="4" stroke="none"></path><path d="M909.21 546.18H748.03V558.59H909.21V546.18Z" fill="#ffffff" opacity="1" stroke-width="4" stroke="none"></path><path d="M1070.38 533.78H909.21V546.18H1070.38V533.78Z" fill="#ff9edd" opacity="1" stroke-width="4" stroke="none"></path></g><g><path d="M592.53 833.3L538.01 869.19" stroke="#231f20" stroke-width="4" stroke-linecap="round" stroke-linejoin="round" opacity="1" fill="none"></path><path d="M680.15 832.72L636.8 921.8" stroke="#231f20" stroke-width="4" stroke-linecap="round" stroke-linejoin="round" opacity="1" fill="none"></path><path d="M735.87 863.1L741.31 914.53" stroke="#231f20" stroke-width="4" stroke-linecap="round" stroke-linejoin="round" opacity="1" fill="none"></path></g><g><path d="M251.4 644.99C253.73 646.34 255.71 648.21 257.19 650.46 258.67 652.71 259.6 655.27 259.92 657.95 260.11 659.87 260.94 661.67 262.27 663.07 263.6 664.47 265.36 665.39 267.27 665.68L267.56 665.78C269.46 666.02 271.39 665.61 273.02 664.6 274.66 663.6 275.9 662.07 276.55 660.27 277.4 658.09 278.64 656.09 280.23 654.37 282.35 652.12 285.06 650.51 288.04 649.69 291.02 648.87 294.17 648.88 297.15 649.72 299.39 650.4 301.49 651.48 303.34 652.92 304.84 654.14 306.72 654.8 308.66 654.8 310.6 654.8 312.47 654.14 313.98 652.92L314.17 652.82C315.72 651.62 316.81 649.94 317.29 648.05 317.76 646.16 317.58 644.16 316.78 642.37 314.96 638.22 314.85 633.51 316.48 629.27 318.11 625.03 321.35 621.61 325.49 619.74 327.05 619.05 328.72 618.59 330.42 618.39 332.34 618.19 334.14 617.36 335.54 616.03 336.94 614.7 337.86 612.95 338.16 611.04L338.25 610.75C338.49 608.85 338.08 606.92 337.08 605.28 336.08 603.65 334.55 602.4 332.74 601.76 330.56 600.91 328.56 599.66 326.84 598.08 324.6 595.95 322.98 593.25 322.16 590.26 321.34 587.28 321.36 584.13 322.2 581.16 322.87 578.91 323.95 576.81 325.39 574.97 326.57 573.44 327.2 571.57 327.2 569.65 327.2 567.72 326.57 565.85 325.39 564.33 325.34 564.27 325.3 564.21 325.29 564.13 324.1 562.59 322.42 561.49 320.52 561.02 318.63 560.55 316.63 560.72 314.85 561.52 310.69 563.37 305.98 563.49 301.73 561.85 297.49 560.22 294.07 556.97 292.22 552.82 291.5 551.25 291.01 549.59 290.77 547.89 290.57 545.96 289.74 544.16 288.41 542.76 287.08 541.36 285.32 540.44 283.42 540.15L283.13 540.05C281.22 539.81 279.3 540.23 277.66 541.23 276.03 542.23 274.78 543.76 274.13 545.56 273.28 547.74 272.04 549.74 270.46 551.46 268.33 553.71 265.62 555.33 262.64 556.14 259.66 556.96 256.51 556.95 253.53 556.11 251.29 555.44 249.19 554.35 247.34 552.91 245.84 551.69 243.96 551.03 242.02 551.03 240.09 551.03 238.21 551.69 236.7 552.91L236.51 553.01C234.98 554.2 233.91 555.87 233.45 557.75 232.99 559.63 233.19 561.6 234 563.36 235.84 567.52 235.96 572.23 234.33 576.48 232.7 580.72 229.45 584.14 225.29 585.99 223.73 586.71 222.06 587.2 220.36 587.44 218.44 587.64 216.64 588.47 215.24 589.8 213.84 591.13 212.92 592.88 212.62 594.79L212.53 595.08C212.28 596.98 212.7 598.91 213.7 600.55 214.7 602.18 216.23 603.43 218.04 604.08 220.22 604.93 222.22 606.17 223.94 607.75 226.22 609.88 227.87 612.59 228.71 615.59 229.54 618.6 229.53 621.77 228.68 624.77 228.01 627.02 226.92 629.12 225.49 630.96 224.26 632.47 223.6 634.34 223.6 636.28 223.6 638.22 224.26 640.1 225.49 641.6L225.58 641.79C226.77 643.32 228.43 644.4 230.31 644.87 232.18 645.35 234.16 645.18 235.93 644.41 238.36 643.23 241.04 642.67 243.74 642.78 246.44 642.88 249.07 643.63 251.4 644.99V644.99ZM257.4 599.53C260.59 584.35 278.77 579.41 289.32 590.73 291.17 592.79 292.52 595.25 293.26 597.92 294 600.58 294.1 603.39 293.57 606.11 292.93 609.49 291.35 612.63 289.01 615.16 286.67 617.7 283.67 619.52 280.35 620.44 277.03 621.36 273.52 621.32 270.21 620.35 266.91 619.37 263.95 617.48 261.66 614.91 259.74 612.89 258.35 610.43 257.61 607.75 256.87 605.07 256.8 602.25 257.4 599.53V599.53Z" fill="#ff9edd" opacity="1" stroke-width="4" stroke="none"></path></g><g><path d="M797.17 174.45H987.94C1010.24 174.45 1028.32 192.53 1028.32 214.84V404.61C1028.32 426.92 1010.24 445 987.94 445H797.17C774.87 445 756.79 426.92 756.79 404.61V214.84C756.79 192.53 774.87 174.45 797.17 174.45Z" fill="#ffffff" opacity="1" stroke-width="4" stroke="none"></path><path d="M823.88 210.43L792.86 241.46" stroke="#272727" stroke-width="4" stroke-linecap="round" stroke-linejoin="round" opacity="1" fill="none"></path><path d="M823.88 241.46L792.86 210.43" stroke="#272727" stroke-width="4" stroke-linecap="round" stroke-linejoin="round" opacity="1" fill="none"></path></g><g><path d="M949.29 265.34L918.06 240.73C918.06 240.73 887.64 238.14 880.26 248.05 873.57 257.01 874.52 275.68 872.5 284.39 870.48 293.1 867.83 301.74 872.63 309.44 877.42 317.13 888.09 319.6 897.17 317.07L897.11 325.59H945.75C947.27 301.36 948.97 275.56 949.29 265.34Z" fill="#846146" opacity="1" stroke-width="4" stroke="none"></path><path d="M999.38 205.96C987.46 188.8 967.39 182.18 954.59 191.07 950.74 193.72 948.02 197.45 946.38 201.86 935.22 196.75 923.73 196.56 915.28 202.43 906.19 208.74 902.6 220.66 904.24 233.98 893.58 235.93 885.44 240.92 880.2 247.98 879.44 248.99 878.81 250 878.31 251.14 878.31 251.14 883.8 257.64 906.51 250.07 901.59 256.63 903.1 265.65 917.36 264.96 918.12 265.97 918.94 266.98 919.76 267.92 918.69 271.33 918.18 274.99 919.13 279.78 919.13 279.78 924.49 277.64 929.79 277.7 932.88 280.1 936.1 282.18 939.32 283.76 942.16 293.16 925.37 303.13 925.37 303.13 934.21 312.59 946.45 313.98 946.45 313.98 947.02 304.45 947.58 295.18 948.02 287.1 956.79 289.44 965.38 288.62 972.06 283.95 980.01 278.4 983.8 268.49 983.42 257.13 988.59 257.32 993.45 256.12 997.62 253.22 1010.55 244.26 1011.31 223.13 999.38 205.96Z" fill="#171314" opacity="1" stroke-width="4" stroke="none"></path><path d="M997.81 239.15C985 248.05 964.93 241.42 953.01 224.26 948.97 218.46 946.38 212.15 945.25 206.03 943.23 215.81 945.75 227.73 953.01 238.27 964.93 255.43 985 262.12 997.81 253.16 1006.26 247.29 1009.48 236.06 1007.27 224.2 1005.94 230.38 1002.79 235.68 997.81 239.15Z" fill="#171314" opacity="0.2" stroke-width="4" stroke="none"></path><path d="M969.29 258.02C952.44 269.81 926.83 263.51 906.57 244.39 908.53 250.57 911.62 256.75 915.72 262.69 931.43 285.15 956.67 294.61 972.13 283.88 983.29 276.06 986.26 259.78 981.09 242.87 978.56 249.06 974.65 254.29 969.29 258.02Z" fill="#171314" opacity="0.2" stroke-width="4" stroke="none"></path><path d="M897.17 317.07C900.89 315.75 904.68 314.61 908.34 313.48" stroke="#151414" stroke-width="4" stroke-linecap="round" stroke-linejoin="round" opacity="1" fill="none"></path><path d="M921.02 291.77L927.33 289.25" stroke="#151414" stroke-width="4" stroke-linecap="round" stroke-linejoin="round" opacity="1" fill="none"></path><path d="M888.53 281.74L888.02 283.51C887.71 284.52 888.02 285.59 888.78 286.28L888.97 286.47" stroke="#151414" stroke-width="4" stroke-linecap="round" stroke-linejoin="round" opacity="1" fill="none"></path><path d="M886.82 294.23C887.96 295.05 891.68 295.18 893.83 292.53" stroke="#151414" stroke-width="4" stroke-linecap="round" stroke-linejoin="round" opacity="1" fill="none"></path><path d="M899.32 280.41C900.46 280.41 901.4 279.48 901.4 278.33 901.4 277.18 900.46 276.25 899.32 276.25 898.16 276.25 897.23 277.18 897.23 278.33 897.23 279.48 898.16 280.41 899.32 280.41Z" fill="#171314" opacity="1" stroke-width="4" stroke="none"></path><path d="M881.46 277.64C882.61 277.64 883.54 276.7 883.54 275.56 883.54 274.41 882.61 273.47 881.46 273.47 880.31 273.47 879.38 274.41 879.38 275.56 879.38 276.7 880.31 277.64 881.46 277.64Z" fill="#171314" opacity="1" stroke-width="4" stroke="none"></path><path d="M948.09 287.04C948.66 277.58 949.16 268.68 949.29 263.95 949.79 247.61 937.61 234.1 919.44 233.16 914.77 232.91 908.84 233.16 904.24 233.91" stroke="#767475" stroke-width="4" stroke-linecap="round" stroke-linejoin="round" opacity="1" fill="none"></path><path d="M983.48 257.13C982.85 246.91 979.57 234.04 972.38 223.69 965.31 213.54 955.53 206.09 946.38 201.86" stroke="#767475" stroke-width="4" stroke-linecap="round" stroke-linejoin="round" opacity="1" fill="none"></path><path d="M897.17 317.07L897.05 328.87 914.46 310.95C905.12 315.18 897.17 317.07 897.17 317.07Z" fill="#151414" opacity="0.2" stroke-width="4" stroke="none"></path><path d="M794.77 430.51C773.32 441.3 738.05 459.98 729.85 467.8 715.34 481.68 705.87 496.19 707.13 499.98 707.51 501.12 711.61 501.75 717.61 498.91 713.13 510.26 710.92 520.36 710.92 524.59 710.92 529.63 715.34 529 715.34 529 716.6 535.94 725.43 530.9 725.43 530.9 733.63 535.31 743.73 516.38 743.73 516.38 743.73 516.38 740.57 529 746.25 525.85 751.93 522.69 755.72 505.66 755.72 505.66 762.66 500.61 770.23 488.62 770.23 488.62L794.2 481.05C794.2 481.05 806.82 476.95 817.61 472.66L794.77 430.51Z" fill="#846146" opacity="1" stroke-width="4" stroke="none"></path><path d="M715.34 529C719.75 525.22 731.74 498.09 731.74 498.09" stroke="#151414" stroke-width="4" stroke-linecap="round" stroke-linejoin="round" opacity="1" fill="none"></path><path d="M725.43 530.9C729.22 527.11 741.2 502.5 741.2 502.5" stroke="#151414" stroke-width="4" stroke-linecap="round" stroke-linejoin="round" opacity="1" fill="none"></path><path d="M743.73 516.38L748.78 505.66" stroke="#151414" stroke-width="4" stroke-linecap="round" stroke-linejoin="round" opacity="1" fill="none"></path><path d="M987.9 347.29C972.63 331.65 956.29 330.32 945.44 331.84L945.37 331.77C945.37 331.77 945.63 326.98 945.82 324.58L897.11 324.52 897.05 332.78C897.05 332.78 867.14 326.41 844.68 364.33 822.59 401.55 811.24 422.38 811.24 422.38 811.24 422.38 803.54 426.1 792.88 431.46L814.65 473.86C822.97 470.58 832 466.41 837.74 462.12 857.3 447.61 877.49 412.28 877.49 412.28L885.06 443.83H956.98L965.63 400.61 985.38 423.64 968.78 440.48 995.79 475.44C1010.49 465.53 1027.71 451.02 1032.7 436.26 1044.05 402.25 987.9 347.29 987.9 347.29Z" fill="#ffc930" opacity="1" stroke-width="4" stroke="none"></path><path d="M956.98 443.95H885.06" stroke="#000000" stroke-width="4" stroke-linecap="round" stroke-linejoin="round" opacity="1" fill="none"></path><path d="M873.7 393.98L863.29 434.11C871.68 422.44 877.49 412.28 877.49 412.28L873.7 393.98Z" fill="#000000" opacity="0.2" stroke-width="4" stroke="none"></path><path d="M956.98 443.83L965.63 400.48 959.07 392.59C959.07 392.59 951.87 421.93 928.97 443.83H956.98Z" fill="#000000" opacity="0.2" stroke-width="4" stroke="none"></path><path d="M877.49 412.28L869.91 383.89" stroke="#000000" stroke-width="4" stroke-linecap="round" stroke-linejoin="round" opacity="1" fill="none"></path><path d="M965.38 400.29L955.97 388.94" stroke="#000000" stroke-width="4" stroke-linecap="round" stroke-linejoin="round" opacity="1" fill="none"></path><path d="M985.38 423.64L992.32 416.7" stroke="#000000" stroke-width="4" stroke-linecap="round" stroke-linejoin="round" opacity="1" fill="none"></path><path d="M943.1 466.54C943.1 466.54 927.33 472.22 922.28 475.37 917.24 478.53 905.88 488.62 899.57 499.35 893.26 510.08 897.68 513.86 897.68 513.86 897.05 522.69 905.25 520.17 905.25 520.17 914.08 525.85 931.12 503.77 931.12 503.77 931.12 503.77 923.54 526.48 928.59 525.22 933.64 523.96 942.47 504.4 942.47 504.4 942.47 504.4 954.46 502.5 959.51 499.98 964.56 497.46 967.71 491.15 967.71 491.15 978.06 486.29 987.96 480.67 997.43 474.36L970.17 439.09 943.1 466.54Z" fill="#846146" opacity="1" stroke-width="4" stroke="none"></path><path d="M897.68 513.86C903.8 504.96 910.74 496.76 918.5 489.25" stroke="#151414" stroke-width="4" stroke-linecap="round" stroke-linejoin="round" opacity="1" fill="none"></path><path d="M905.25 520.17C905.25 520.17 918.5 503.77 926.7 495.56" stroke="#151414" stroke-width="4" stroke-linecap="round" stroke-linejoin="round" opacity="1" fill="none"></path><path d="M931.12 503.77L934.84 498.15" stroke="#151414" stroke-width="4" stroke-linecap="round" stroke-linejoin="round" opacity="1" fill="none"></path><path d="M945.37 331.77C940.33 333.03 936.35 333.41 936.35 333.41" stroke="#000000" stroke-width="4" stroke-linecap="round" stroke-linejoin="round" opacity="1" fill="none"></path></g><g><path d="M1302.4 575.1H1018.96C999.76 575.1 984.24 590.62 984.24 609.81L984.24 876.11C984.24 895.31 999.76 910.82 1018.96 910.82H1302.4C1321.59 910.82 1337.11 895.31 1337.11 876.11L1337.11 609.81C1337.11 590.62 1321.53 575.1 1302.4 575.1Z" fill="#ffffff" opacity="1" stroke-width="4" stroke="none"></path><path d="M1022.2 636.73C1030.08 636.73 1036.47 630.35 1036.47 622.46 1036.47 614.58 1030.08 608.19 1022.2 608.19 1014.31 608.19 1007.93 614.58 1007.93 622.46 1007.93 630.35 1014.31 636.73 1022.2 636.73Z" fill="#f3ebe9" opacity="1" stroke-width="4" stroke="none"></path><path d="M1063.64 636.73C1071.53 636.73 1077.91 630.35 1077.91 622.46 1077.91 614.58 1071.53 608.19 1063.64 608.19 1055.76 608.19 1049.37 614.58 1049.37 622.46 1049.37 630.35 1055.76 636.73 1063.64 636.73Z" fill="#f3ebe9" opacity="1" stroke-width="4" stroke="none"></path><path d="M1105.15 636.73C1113.03 636.73 1119.42 630.35 1119.42 622.46 1119.42 614.58 1113.03 608.19 1105.15 608.19 1097.26 608.19 1090.88 614.58 1090.88 622.46 1090.88 630.35 1097.26 636.73 1105.15 636.73Z" fill="#f3ebe9" opacity="1" stroke-width="4" stroke="none"></path></g><g><path d="M1135.05 734.25L1135.35 719.61C1135.35 719.51 1135.25 719.51 1135.25 719.51 1125.48 721.41 1111.74 720.81 1104.17 711.35 1097.3 702.68 1098.49 689.23 1101.68 670.51 1104.37 655.87 1103.97 633.56 1112.74 621.7 1122.6 607.66 1140.92 604.87 1161.44 605.67 1185.15 606.96 1202.98 627.68 1202.38 650.39 1201.98 660.95 1201.48 680.77 1199.99 705.67 1199.49 712.94 1198.29 737.14 1198.19 738.84 1198.19 738.94 1198.09 738.94 1198.09 738.94L1135.15 734.35C1135.05 734.35 1135.05 734.35 1135.05 734.25Z" fill="#cf5934" opacity="1" stroke-width="4" stroke="none"></path><path d="M1135.35 719.51L1135.15 734.16C1135.15 734.25 1135.25 734.25 1135.35 734.25L1153.87 713.54C1153.97 713.44 1153.87 713.34 1153.77 713.34 1144.31 717.72 1136.24 719.21 1135.35 719.51 1135.35 719.41 1135.35 719.41 1135.35 719.51Z" fill="#030202" opacity="0.2" stroke-width="4" stroke="none"></path><path d="M1168.31 689.43L1176.78 686.05" stroke="#030202" stroke-width="4" stroke-linecap="round" stroke-linejoin="round" opacity="1" fill="none"></path><path d="M1135.94 719.41C1140.52 718.32 1148.79 715.73 1154.17 713.04" stroke="#030202" stroke-width="4" stroke-linecap="round" stroke-linejoin="round" opacity="1" fill="none"></path><path d="M1124.39 675.79L1123.69 678.18C1123.19 679.57 1123.69 680.97 1124.69 681.86L1124.99 682.16" stroke="#030202" stroke-width="4" stroke-linecap="round" stroke-linejoin="round" opacity="1" fill="none"></path><path d="M1121.6 692.82C1123.19 694.02 1128.77 694.02 1131.66 690.43" stroke="#000000" stroke-width="4" stroke-linecap="round" stroke-linejoin="round" opacity="1" fill="none"></path><path d="M1140.82 669.31C1144.51 669.41 1144.51 674.79 1140.82 674.89 1137.14 674.79 1137.14 669.41 1140.82 669.31Z" fill="#010005" opacity="1" stroke-width="4" stroke="none"></path><path d="M1114.13 664.93C1117.82 665.03 1117.82 670.41 1114.13 670.51 1110.44 670.41 1110.44 665.03 1114.13 664.93Z" fill="#010005" opacity="1" stroke-width="4" stroke="none"></path><path d="M952.87 841.73C950.48 842.52 948.09 842.92 945.6 842.92 932.95 842.92 920.4 833.16 919.41 832.36 917.22 832.06 886.04 827.58 882.36 822.3 880.26 817.82 889.63 817.12 893.61 816.83 893.71 816.83 893.71 816.63 893.61 816.63 877.87 812.14 872.39 806.67 870.7 802.88 869.31 800.09 870 797.9 870.2 797.3V797.2C864.03 790.13 868.11 785.55 874.29 784.85 874.39 784.85 874.39 784.75 874.39 784.75 873.69 780.67 877.87 777.98 884.94 777.98 894.81 778.08 910.14 780.47 921.5 782.46 921.6 782.46 921.6 782.36 921.6 782.26 911.64 771.31 909.55 763.84 922.89 767.42 935.54 770.71 966.92 784.06 991.62 794.91 991.72 794.91 991.72 795.01 991.62 795.01L962.04 849.89C962.14 849.99 956.36 845.01 952.87 841.73Z" fill="#cf5934" opacity="1" stroke-width="4" stroke="none"></path><path d="M1245.01 928.68C1225.88 928.68 1203.47 922.6 1180.17 911.15H1121.9C1121.9 911.15 1121.8 911.15 1121.8 911.05L1114.03 867.42C1114.03 867.32 1113.93 867.32 1113.83 867.42 1073.59 921.61 1008.95 894.52 962.14 849.99V849.89C963.13 847.9 989.33 796.81 990.42 794.51 990.42 794.51 990.52 794.41 990.52 794.51 1022.1 809.16 1050.28 821.31 1052.48 822.2 1052.48 822.2 1052.58 822.2 1052.58 822.1 1082.36 765.83 1103.07 745.01 1134.95 739.93H1223.39C1271.6 742.52 1296.7 812.04 1297.9 881.87 1298.49 912.64 1275.39 928.88 1245.01 928.68Z" fill="#61ccff" opacity="1" stroke-width="4" stroke="none"></path><path d="M1083.05 892.22C1083.15 892.12 1088.53 883.46 1092.22 869.51 1093.81 863.54 1095.11 857.86 1096.3 852.78 1099.59 838.34 1101.78 827.88 1108.55 827.18 1108.55 827.18 1108.55 827.18 1108.65 827.18 1109.35 828.08 1114.23 866.63 1114.43 866.63L1114.53 867.12C1114.43 867.32 1103.17 883.66 1083.35 892.52L1082.76 892.82 1083.05 892.22Z" fill="#081921" opacity="0.2" stroke-width="4" stroke="none"></path><path d="M1203.27 725.59C1203.27 725.49 1203.27 725.49 1203.27 725.59L1135.35 725.79C1135.25 725.79 1135.25 725.79 1135.25 725.89L1135.05 739.83C1135.05 739.93 1135.05 739.93 1135.15 739.93 1135.94 739.93 1141.32 740.23 1148.39 740.23 1148.49 740.23 1148.49 740.33 1148.49 740.43 1133.65 750.29 1127.78 767.02 1133.25 785.05 1133.25 785.15 1133.35 785.15 1133.35 785.15 1134.55 784.85 1148.39 781.57 1154.27 764.24 1154.27 764.14 1154.47 764.14 1154.47 764.24 1157.76 777.88 1167.12 789.34 1181.66 796.31 1181.76 796.31 1181.76 796.31 1181.76 796.21 1182.26 793.82 1189.03 757.96 1161.94 740.33 1161.84 740.23 1161.84 740.13 1161.94 740.13 1180.27 740.03 1201.68 740.03 1203.17 739.73 1203.17 739.73 1203.17 739.63 1203.27 739.63 1203.17 736.74 1203.17 730.57 1203.27 725.59Z" fill="#efdcd7" opacity="1" stroke-width="4" stroke="none"></path><path d="M1190.43 880.47C1201.98 880.77 1201.98 897.7 1190.43 898 1178.87 897.7 1178.87 880.77 1190.43 880.47Z" fill="#f5f5f5" opacity="1" stroke-width="4" stroke="none"></path><path d="M991.52 837.24C1003.07 837.54 1003.07 854.47 991.52 854.77 979.97 854.47 979.97 837.54 991.52 837.24Z" fill="#f5f5f5" opacity="1" stroke-width="4" stroke="none"></path><path d="M1229.37 855.57L1217.32 820.21" stroke="#081921" stroke-width="4" stroke-linecap="round" stroke-linejoin="round" opacity="1" fill="none"></path><path d="M1122.4 910.95L1116.42 877.88C1116.42 877.78 1116.52 877.78 1116.52 877.78L1160.84 899.59 1180.86 910.65 1180.76 911.05 1122.4 910.95C1122.4 911.05 1122.4 911.05 1122.4 910.95Z" fill="#081921" opacity="0.2" stroke-width="4" stroke="none"></path><path d="M1053.27 822.1L1041.42 817.32" stroke="#081921" stroke-width="4" stroke-linecap="round" stroke-linejoin="round" opacity="1" fill="none"></path><path d="M1112.14 850.39L1108.75 827.18" stroke="#081921" stroke-width="4" stroke-linecap="round" stroke-linejoin="round" opacity="1" fill="none"></path><path d="M922.3 782.96L932.36 794.32C932.36 794.32 939.33 816.43 955.96 824.3" stroke="#030202" stroke-width="4" stroke-linecap="round" stroke-linejoin="round" opacity="1" fill="none"></path><path d="M874.59 785.25L919.41 796.81" stroke="#030202" stroke-width="4" stroke-linecap="round" stroke-linejoin="round" opacity="1" fill="none"></path><path d="M870.4 797.4L916.12 808.56" stroke="#030202" stroke-width="4" stroke-linecap="round" stroke-linejoin="round" opacity="1" fill="none"></path><path d="M894.21 816.83L915.22 820.81" stroke="#030202" stroke-width="4" stroke-linecap="round" stroke-linejoin="round" opacity="1" fill="none"></path><path d="M1190.82 848.5C1206.16 840.13 1203.47 819.22 1217.22 820.21 1217.22 820.21 1217.32 820.21 1217.32 820.31 1217.82 821.91 1229.27 855.27 1230.07 857.46 1230.07 857.56 1230.07 857.56 1229.97 857.56 1227.58 857.36 1194.21 849.4 1190.82 848.8 1190.72 848.7 1190.72 848.6 1190.82 848.5Z" fill="#081921" opacity="0.2" stroke-width="4" stroke="none"></path><path d="M1096.2 908.96C1093.81 908.96 1091.62 908.06 1091.62 905.67 1091.82 900.69 1103.97 892.42 1110.74 888.14 1110.84 888.04 1110.74 887.94 1110.64 887.94 1103.07 891.33 1087.83 897.3 1077.68 897.3 1072.2 897.3 1068.71 895.51 1067.72 891.93 1067.62 891.93 1067.42 891.93 1067.22 891.93 1060.25 892.12 1056.56 887.34 1061.74 879.67V879.57C1061.44 878.98 1060.44 876.69 1061.14 873.6 1066.22 858.86 1118.51 843.72 1147.6 843.72 1155.07 843.72 1164.43 844.32 1173.39 845.81 1173.49 845.81 1173.49 845.91 1173.49 845.91L1160.74 899.79C1160.74 899.79 1160.74 899.89 1160.64 899.89 1160.15 899.99 1157.66 900.39 1153.67 900.39 1147.5 900.59 1137.04 898.8 1129.47 894.12H1129.37C1126.48 895.71 1105.76 908.96 1096.2 908.96Z" fill="#cf5934" opacity="1" stroke-width="4" stroke="none"></path><path d="M1171.5 845.61C1197 848.5 1241.22 860.55 1241.22 860.55" stroke="#081921" stroke-width="4" stroke-linecap="round" stroke-linejoin="round" opacity="1" fill="none"></path><path d="M1062.34 879.67C1079.07 870.21 1097 863.04 1115.62 858.56" stroke="#030202" stroke-width="4" stroke-linecap="round" stroke-linejoin="round" opacity="1" fill="none"></path><path d="M1068.41 891.83C1082.46 884.75 1110.64 873.8 1118.71 871.71" stroke="#030202" stroke-width="4" stroke-linecap="round" stroke-linejoin="round" opacity="1" fill="none"></path><path d="M1160.84 899.79C1166.82 903.68 1172.9 907.36 1179.37 910.55" stroke="#081921" stroke-width="4" stroke-linecap="round" stroke-linejoin="round" opacity="1" fill="none"></path><path d="M1154.27 763.74C1152.18 753.78 1153.57 744.61 1154.57 740.23" stroke="#bbbbbb" stroke-width="4" stroke-linecap="round" stroke-linejoin="round" opacity="1" fill="none"></path><path d="M1291.02 823.8C1278.97 787.94 1269.91 775.49 1267.02 770.61 1267.02 770.61 1266.92 770.51 1266.92 770.61 1239.43 781.17 1207.96 782.36 1189.03 761.05 1170.41 739.93 1173.99 706.76 1174.19 704.77 1174.19 704.77 1174.19 704.77 1174.19 704.67 1175.29 703.98 1196.9 690.83 1193.01 678.28 1191.32 673 1187.04 670.51 1180.07 670.51 1173.59 670.51 1166.72 672.7 1165.72 673.1 1165.62 673.1 1165.62 673.1 1165.62 673 1164.03 664.93 1165.33 659.25 1168.01 653.08 1168.01 652.98 1168.01 652.98 1167.92 652.98 1158.65 654.57 1148.29 652.38 1146.3 646.8 1144.41 643.22 1145.11 638.14 1148.19 633.86 1148.29 633.76 1148.19 633.66 1148.09 633.76 1134.85 640.43 1113.63 642.12 1107.16 634.55V634.45C1112.54 612.24 1135.44 601.68 1160.15 601.48 1185.35 600.29 1207.76 620.61 1206.86 645.21 1206.76 651.39 1206.46 668.02 1205.56 680.77 1205.56 680.87 1205.66 680.87 1205.66 680.87 1240.82 662.54 1279.97 675.79 1281.36 720.21 1281.36 720.21 1281.36 720.31 1281.46 720.31 1346.5 733.96 1334.65 805.47 1291.22 823.9 1291.02 823.9 1291.02 823.9 1291.02 823.8Z" fill="#010005" opacity="1" stroke-width="4" stroke="none"></path><path d="M1210.05 563.04C1250.49 564.33 1250.49 623 1210.05 624.19 1169.61 622.9 1169.61 564.23 1210.05 563.04Z" fill="#010005" opacity="1" stroke-width="4" stroke="none"></path></g><g><path d="M425.82 1004.44L430.31 990.26C429.03 984.03 428.02 982.29 434.24 981.01 434.98 980.83 434.61 974.06 435.43 974.06L456.02 964.45 459.04 961.98C459.68 954.02 460.6 946.24 462.15 938.37V938.28L423.72 879.9 383.82 938.28V938.37C383.91 956.12 385.2 973.6 387.3 991.17L393.89 997.21 425.82 1004.44Z" fill="#f9b298" opacity="1" stroke-width="4" stroke="none"></path><path d="M557.96 993.82L553.29 975.61C552.01 969.39 552.65 965.55 558.88 964.27 559.61 964.08 560.43 964.08 561.16 964.08L587.88 963.99 587.79 961.89C587.61 955.57 587.43 950.54 588.07 940.66L585.6 934.16 515.14 933.61C515.04 933.61 513.58 937.09 513.58 937.18L512.48 939.38C513.03 957.13 515.14 974.61 517.79 992.18L557.96 993.82Z" fill="#f9b298" opacity="1" stroke-width="4" stroke="none"></path><path d="M628.51 1023.2L628.97 1021.28C625.4 1014.32 620 1011.49 612.77 1005.99 608.84 1002.97 604.26 999.59 599.05 995.11 596.76 993.18 594.75 990.8 593.28 988.06 589.81 981.93 588.07 973.69 587.7 962.07L561.07 961.89C554.48 961.89 549.18 967.2 549.18 973.78 549.18 974.61 549.27 975.43 549.45 976.16L552.56 991.08H517.51V991.26C519.07 1001.51 521.63 1015.51 522.64 1020.73 522.82 1021.83 524.01 1022.37 524.01 1022.65 524.01 1022.74 523.92 1022.65 524.01 1022.65L628.51 1023.2Z" fill="#ff9edd" opacity="1" stroke-width="4" stroke="none"></path><path d="M498.76 1023.75C498.85 1023.75 498.94 1023.66 498.94 1023.47L496.93 1019.72C492.9 1013.13 489.06 1012.03 481.46 1006.09 477.43 1002.97 472.95 999.41 467.83 995.01 465.45 993 463.53 990.44 462.15 987.6 459.32 981.56 458.4 973.24 459.13 962.07V961.89H432.96C426.37 961.89 421.07 967.2 421.07 973.78 421.07 974.61 421.16 975.43 421.34 976.16L424.45 991.08H387.48V991.26C388.67 1001.33 389.77 1009.84 391.42 1019.81L391.97 1023.11 498.76 1023.75Z" fill="#ff9edd" opacity="1" stroke-width="4" stroke="none"></path><path d="M518.43 478.73L518.52 473.51C521.08 474.25 523.28 474.34 525.84 474.34 534.35 474.34 541.49 470.68 545.52 464.27 550.64 456.04 548.44 446.7 546.25 437.64 546.06 436.82 545.88 436 545.7 435.17 544.97 431.15 544.42 427.12 544.14 423.09 543.23 412.94 542.04 400.31 536.73 393.08 528.4 381.92 515.32 387.95 497.66 387.95 496.28 387.95 493.27 383.84 491.89 383.93 471.58 385.03 460.87 393.81 461.51 413.3 461.88 425.02 457.58 449.81 459.87 478.73L460.14 480.01 484.11 488.34 518.43 478.73Z" fill="#f9b298" opacity="1" stroke-width="4" stroke="none"></path><path d="M484.3 456.95L484.48 456.77 484.3 456.68C484.11 456.59 464.71 444.96 468.28 434.26 469.75 429.77 473.5 427.58 479.36 427.58 483.47 427.76 487.13 428.22 491.44 429.96L491.62 430.05 491.71 429.5C492.99 423.18 491.98 418.88 490.15 414.13 489.88 413.49 490.43 412.75 491.16 412.84 492.53 412.94 493.91 413.03 495.28 413.12 503.7 413.12 506.99 410.01 508.27 407.45 509.64 404.79 509.37 401.41 507.72 398.11 507.36 397.38 508.09 396.46 508.91 396.74 516.14 398.94 522.46 400.13 527.67 400.13 536.18 400.13 539.02 397.2 539.02 397.2 538.47 395.92 537.46 394.27 536.64 393.17 528.31 382.01 513.95 375.88 496.28 375.88 494.91 375.88 493.54 375.88 492.17 375.97 471.85 377.07 455.75 393.72 456.39 413.21 456.57 423.92 457.76 443.59 459.41 471.13 459.41 471.04 474.14 467.84 484.3 456.95Z" fill="#000000" opacity="1" stroke-width="4" stroke="none"></path><path d="M518.52 473.51C514.22 471.96 508.64 469.49 504.7 467.11" stroke="#000000" stroke-width="4" stroke-linecap="round" stroke-linejoin="round" opacity="1" fill="none"></path><path d="M489.33 443.77L482.1 440.85" stroke="#000000" stroke-width="4" stroke-linecap="round" stroke-linejoin="round" opacity="1" fill="none"></path><path d="M526.94 432.15L527.49 434.17C527.85 435.36 527.49 436.55 526.57 437.37L526.39 437.55" stroke="#000000" stroke-width="4" stroke-linecap="round" stroke-linejoin="round" opacity="1" fill="none"></path><path d="M528.95 446.61C527.67 447.53 523.37 447.71 520.81 444.6" stroke="#000000" stroke-width="4" stroke-linecap="round" stroke-linejoin="round" opacity="1" fill="none"></path><path d="M514.49 430.6C513.18 430.6 512.12 429.54 512.12 428.22 512.12 426.91 513.18 425.84 514.49 425.84 515.81 425.84 516.87 426.91 516.87 428.22 516.87 429.54 515.81 430.6 514.49 430.6Z" fill="#000000" opacity="1" stroke-width="4" stroke="none"></path><path d="M534.9 427.58C533.58 427.58 532.52 426.52 532.52 425.2 532.52 423.89 533.58 422.82 534.9 422.82 536.22 422.82 537.28 423.89 537.28 425.2 537.28 426.52 536.22 427.58 534.9 427.58Z" fill="#000000" opacity="1" stroke-width="4" stroke="none"></path><path d="M662.55 532.08C664.02 528.05 664.93 525.95 666.12 522.93 668.04 518.35 670.61 512.13 677.19 494.56 680.21 488.52 683.05 483.31 685.61 478.73 690.83 469.3 693.94 463.63 692.2 461.8 691.74 461.34 691.2 461.07 690.46 461.07 687.9 461.07 686.53 462.53 680.21 469.12 679.3 470.13 676.65 472.87 675 474.52 674.82 474.7 674.54 474.52 674.63 474.25 675.64 472.05 677.47 468.21 678.29 466.47 681.86 458.96 685.16 452.19 682.78 447.25 682.14 445.97 680.95 445.06 679.57 444.78 679.48 440.66 677.56 438.19 674.36 438.19 672.89 438.28 671.52 438.65 670.24 439.29 669.14 438.56 667.86 438.19 666.58 438.19 658.98 438.19 651.12 451 644.16 462.26 640.87 467.57 637.85 472.6 635.28 475.16 635.01 462.35 632.54 454.75 628.7 454.75 628.24 454.75 627.87 454.85 627.51 455.03 624.58 456.13 623.02 463.91 621.28 472.96 620.92 474.89 620.46 476.9 620.09 478.91 619.36 482.48 618.72 485.59 618.17 488.34 616.34 496.67 615.15 502.25 616.07 509.75 613.14 517.16 610.3 524.85 607.74 531.53L607.28 532.81 662.55 532.08Z" fill="#f9b298" opacity="1" stroke-width="4" stroke="none"></path><path d="M635.28 475.16V483.95C635.28 483.95 644.71 493.55 643.06 507.1" stroke="#000000" stroke-width="4" stroke-linecap="round" stroke-linejoin="round" opacity="1" fill="none"></path><path d="M669.6 439.47C659.72 452.74 651.57 469.3 651.57 469.3" stroke="#000000" stroke-width="4" stroke-linecap="round" stroke-linejoin="round" opacity="1" fill="none"></path><path d="M679.48 444.78C675.09 450.27 661.46 474.61 661.46 474.61" stroke="#000000" stroke-width="4" stroke-linecap="round" stroke-linejoin="round" opacity="1" fill="none"></path><path d="M384.1 928.76C384.46 918.79 385.29 908.72 386.84 898.84 389.59 880.81 393.89 865.44 397.73 851.9 401.48 838.35 404.78 826.73 406.06 814.84 408.07 795.07 406.7 775.4 405.24 754.53 402.12 709.97 398.83 663.85 430.86 614.8L430.95 614.71H449.89 507.17 531.15L531.24 614.8C531.79 615.81 586.05 715.28 591.82 821.42 593.1 847.23 592.73 873.13 590.9 898.84 590.45 905.98 589.99 912.75 589.53 919.25 589.07 926.02 588.52 932.15 588.16 938.1V938.55L513.21 938.83C514.4 938.74 513.21 938.92 513.21 938.83L512.48 938.19C512.57 933.25 512.57 928.58 512.76 923.73 513.12 913.02 513.49 905.34 514.04 898.93 514.86 888.59 515.87 880.9 516.78 874.04 518.43 860.86 519.71 851.35 517.88 834.69 515.96 817.58 505.25 794.06 492.81 766.98 492.53 766.98 492.62 766.98 492.35 767.07 490.43 783.54 488.32 800.65 486.13 817.95 482.1 848.79 475.7 877.79 470.94 899.02L469.75 904.33C467 916.5 464.35 928.12 462.34 938.37L461.88 940.66C461.88 940.75 461.79 940.84 461.7 940.84L384.01 938.65V938.28C383.91 935.08 384.01 931.69 384.1 928.76Z" fill="#61ccff" opacity="1" stroke-width="4" stroke="none"></path><path d="M674.72 474.52L670.79 480.74" stroke="#000000" stroke-width="4" stroke-linecap="round" stroke-linejoin="round" opacity="1" fill="none"></path><path d="M530.51 938.83L530.6 938.28C530.97 932.33 531.42 926.02 531.88 919.25 532.34 912.75 532.8 905.98 533.25 898.84 534.63 877.7 536.37 851.35 534.17 821.42 533.16 807.7 525.11 767.25 509.64 697.89 508.46 692.67 504.7 690.39 500.95 690.39 500.31 690.57 495.92 746.66 492.44 766.15 504.98 793.51 515.87 817.22 517.79 834.51 519.62 851.16 518.34 860.68 516.69 873.86 515.78 880.72 514.77 888.41 513.95 898.75 513.4 905.15 513.03 912.84 512.66 923.55 512.48 928.4 512.66 932.06 512.39 937L512.48 938.19C512.48 938.28 512.57 938.92 512.57 938.92L530.51 938.83Z" fill="#080808" opacity="0.3" stroke-width="4" stroke="none"></path><path d="M408.62 667.05C462.61 652.41 482.65 641.06 506.99 625.51L507.08 625.42 507.17 614.71H430.95L430.86 614.8C420.33 630.63 412.74 648.29 408.35 666.78L408.25 667.05H408.62Z" fill="#080808" opacity="0.3" stroke-width="4" stroke="none"></path><path d="M501.13 688.56C498.94 711.25 495.46 740.35 492.08 768.99" stroke="#080808" stroke-width="4" stroke-linecap="round" stroke-linejoin="round" opacity="1" fill="none"></path><path d="M518.06 479.92V473.33L516.33 472.87C511.66 471.5 508.55 470.13 504.06 468.12L503.79 468.66 509.46 483.85 518.06 479.92Z" fill="#000000" opacity="0.3" stroke-width="4" stroke="none"></path><path d="M426.37 638.96C438.82 638.96 453.09 637.31 469.2 633.65L469.75 632.83 468.47 615.08H531.33L541.86 576.28C543.78 579.2 558.42 599.89 582.94 608.94 589.35 611.51 596.21 612.79 603.07 612.97 636.84 612.97 652.12 572.25 663.65 529.24L614.05 515.24 600.42 548C599.23 546.35 592.09 536.65 579.56 520.91 555.95 489.34 521.27 486.23 518.43 486.05V478.73H459.87L460.23 484.31C440.56 487.24 422.99 498.04 411.37 514.14 410.91 514.78 362.23 579.94 379.98 619.38 385.38 631.82 402.4 638.96 426.37 638.96Z" fill="#ffc930" opacity="1" stroke-width="4" stroke="none"></path><path d="M541.86 576.28L545.33 561.27" stroke="#5f5f5f" stroke-width="4" stroke-linecap="round" stroke-linejoin="round" opacity="1" fill="none"></path><path d="M552.56 588.63C552.56 588.54 550.09 581.22 550.09 566.76 550.09 558.34 550.09 552.85 547.16 552.85H546.98L541.4 575.91V576C544.51 580.58 548.17 584.88 552.1 588.81L552.56 588.63Z" fill="#5f5f5f" opacity="0.3" stroke-width="4" stroke="none"></path><path d="M446.87 567.4L438.36 588.63" stroke="#5f5f5f" stroke-width="4" stroke-linecap="round" stroke-linejoin="round" opacity="1" fill="none"></path><path d="M591.27 988.06L579.19 993.18" stroke="#6d2855" stroke-width="4" stroke-linecap="round" stroke-linejoin="round" opacity="1" fill="none"></path><path d="M599.6 997.76L589.44 1005.9" stroke="#6d2855" stroke-width="4" stroke-linecap="round" stroke-linejoin="round" opacity="1" fill="none"></path><path d="M460.51 988.43L449.25 993.18" stroke="#6d2855" stroke-width="4" stroke-linecap="round" stroke-linejoin="round" opacity="1" fill="none"></path><path d="M468.83 998.4L459.5 1005.9" stroke="#6d2855" stroke-width="4" stroke-linecap="round" stroke-linejoin="round" opacity="1" fill="none"></path><path d="M461.79 940.75L384.28 938.28" stroke="#080808" stroke-width="4" stroke-linecap="round" stroke-linejoin="round" opacity="1" fill="none"></path><path d="M587.43 938.28L512.48 938.65" stroke="#080808" stroke-width="4" stroke-linecap="round" stroke-linejoin="round" opacity="1" fill="none"></path><path d="M591.09 898.93H514.22" stroke="#080808" stroke-width="4" stroke-linecap="round" stroke-linejoin="round" opacity="1" fill="none"></path><path d="M470.3 898.93H387.03" stroke="#080808" stroke-width="4" stroke-linecap="round" stroke-linejoin="round" opacity="1" fill="none"></path><path d="M539.66 659.64C539.75 659.64 539.75 659.64 539.84 659.64 540.67 659.55 541.49 659 541.76 658.18 542.95 655.25 540.21 648.38 534.72 640.51 535.72 641.16 536.73 641.89 537.74 642.62 543.96 647.01 551.74 652.5 557.78 652.5 560.25 652.59 562.54 651.4 564 649.48 566.2 649.48 567.84 648.75 568.85 647.47 569.95 646.01 570.04 643.81 569.22 641.34 570.31 639.42 570.31 636.95 569.31 634.02 567.29 628.16 560.89 620.2 551.83 612.24 543.5 605.01 534.53 598.97 528.22 596.59 511.75 590.37 485.58 588.72 466.55 588.54H466.36L469.2 633.65C469.2 633.65 480.55 631 487.32 629.17 488.23 629.63 499.12 635.12 516.42 637.86 526.21 651.13 536.73 659.64 539.66 659.64Z" fill="#f9b298" opacity="1" stroke-width="4" stroke="none"></path><path d="M453.19 588.9L453.09 588.63C450.07 581.68 454.56 577.28 454.47 570.6 454.37 563.1 453.28 561.27 449.25 560.63L438.36 588.63 453.19 588.9Z" fill="#5f5f5f" opacity="0.3" stroke-width="4" stroke="none"></path><path d="M632.72 1035.55V1035.37C632.72 1029.7 631.62 1025.39 629.06 1021.37L628.97 1021.28 522.73 1020.64C522.64 1020.64 522.64 1020.73 522.64 1020.82 523.01 1022.28 525.57 1035.09 525.75 1035.46L632.72 1035.55Z" fill="#6d2855" opacity="1" stroke-width="4" stroke="none"></path><path d="M501.32 1035.55V1035.37C501.32 1029.7 500.22 1025.39 497.66 1021.37L497.57 1021.28H391.6V1021.46C393.16 1030.06 394.07 1034.73 394.25 1035.37L501.32 1035.55Z" fill="#6d2855" opacity="1" stroke-width="4" stroke="none"></path><path d="M569.03 640.51C563.18 633.93 550.09 622.3 540.57 615.72" stroke="#000000" stroke-width="4" stroke-linecap="round" stroke-linejoin="round" opacity="1" fill="none"></path><path d="M563.91 649.21C559.52 644.82 544.97 632.46 533.25 624.41" stroke="#000000" stroke-width="4" stroke-linecap="round" stroke-linejoin="round" opacity="1" fill="none"></path><path d="M534.35 639.97L525.93 633.19" stroke="#000000" stroke-width="4" stroke-linecap="round" stroke-linejoin="round" opacity="1" fill="none"></path><path d="M600.24 548.46L601.15 559.44" stroke="#5f5f5f" stroke-width="4" stroke-linecap="round" stroke-linejoin="round" opacity="1" fill="none"></path><path d="M466.73 588.54C457.21 588.54 440.56 588.63 428.84 589.36" stroke="#5f5f5f" stroke-width="4" stroke-linecap="round" stroke-linejoin="round" opacity="1" fill="none"></path></g><g><path d="M1242.53 355.39L1272.28 477.56C1275.92 492.55 1266.78 507.74 1251.68 511.41 1236.69 515.06 1221.5 505.92 1217.83 490.82L1181.34 340.97C1176.39 320.6 1188.85 300.12 1209.21 295.17 1229.57 290.21 1250.05 302.67 1255.01 323.03L1282.08 434.22" stroke="#ff9edd" stroke-width="4" stroke-linecap="round" stroke-linejoin="round" opacity="1" fill="none"></path></g></svg>